<svg xmlns="http://www.w3.org/2000/svg" width="16" height="13"><path data-name="logo - Twitter" d="M16 1.5L14.5 3v.249a2.943 2.943 0 0 1-.11.788A8.772 8.772 0 0 1 11 10.98c-5.31 4.238-11 .5-11 .5 4.5 0 4.5-1.5 4.5-1.5-1 0-3-1.995-3-1.995a1.515 1.515 0 0 0 1.5 0C.5 6.485.5 4.992.5 4.992a1.516 1.516 0 0 0 1.5 0A3.44 3.44 0 0 1 1 .503c.5 2.494 7 3.491 7 3.491l.08-.041A6.012 6.012 0 0 1 8 2.997 3.04 3.04 0 0 1 11.25 0a3.239 3.239 0 0 1 2.46 1.143L14 1l1.5-1-1 2z" fill="#efebe4" fill-rule="evenodd"/></svg>