<svg xmlns="http://www.w3.org/2000/svg" width="20" height="20.03"><path data-name="interface - favorite star" d="M9.687.11a.633.633 0 0 1 .854.22l3.75 6.92a.6.6 0 0 1-.229.83.641.641 0 0 1-.853-.22L9.459.93a.585.585 0 0 1 .228-.82zm.625 0a.632.632 0 0 0-.853.22l-3.75 6.92a.6.6 0 0 0 .228.83.642.642 0 0 0 .854-.22l3.75-6.93a.585.585 0 0 0-.229-.82zM13.75 6.9h5.625a.625.625 0 1 1 0 1.25H13.75a.625.625 0 1 1 0-1.25zM.625 6.9H6.25a.625.625 0 1 1 0 1.25H.625a.625.625 0 1 1 0-1.25zm-.446.18a.625.625 0 0 1 .878 0l5.014 5.02a.618.618 0 0 1-.878.87L.179 7.96a.624.624 0 0 1 0-.88zm19.642 0a.625.625 0 0 0-.878 0l-5.014 5.02a.618.618 0 0 0 .878.87l5.014-5.01a.624.624 0 0 0 0-.88zM5.78 11.93a.635.635 0 0 1 .459.78L4.39 19.55a.648.648 0 0 1-1.254-.33l1.848-6.84a.644.644 0 0 1 .796-.45zm8.44 0a.635.635 0 0 0-.459.78l1.849 6.84a.648.648 0 0 0 1.254-.33l-1.849-6.84a.643.643 0 0 0-.795-.45zm-3.8 2.66a.684.684 0 0 0-.917 0l-6.2 4.4a.571.571 0 0 0 .007.85.686.686 0 0 0 .918.01l6.2-4.41a.571.571 0 0 0-.006-.85zm-.844 0a.684.684 0 0 1 .917 0l6.2 4.4a.569.569 0 0 1-.007.85.685.685 0 0 1-.917.01l-6.2-4.41a.57.57 0 0 1 .009-.85z" fill="#fff" fill-rule="evenodd"/></svg>