<svg xmlns="http://www.w3.org/2000/svg" xmlns:xlink="http://www.w3.org/1999/xlink"><symbol id="icon-arrow"><path data-name="interface - arrow right" d="M16 32A16 16 0 1 0 0 16a16 16 0 0 0 16 16zm0-2A14 14 0 1 0 2 16a14 14 0 0 0 14 14zm-2.8-8.19a.713.713 0 0 0 .98 0l5.62-5.35a.635.635 0 0 0 0-.93.713.713 0 0 0-.98 0l-5.62 5.34a.647.647 0 0 0 0 .94zm6.6-5.33a.713.713 0 0 1-.98 0l-5.62-5.35a.647.647 0 0 1 0-.94.713.713 0 0 1 .98 0l5.62 5.35a.647.647 0 0 1 0 .94z" fill="#56534c" fill-rule="evenodd"/></symbol><symbol id="icon-facebook"><path data-name="logo - Facebook" d="M3 15V8H0V6h3V3C3 .662 4.18 0 6.23 0a9.871 9.871 0 0 1 1.74.14v2.367H6.23C5.12 2.507 5 4.207 5 4.996v1h3l-.5 2H5v7H3z" fill="#efebe4" fill-rule="evenodd"/></symbol><symbol id="icon-instagram"><path data-name="logo - Instagram" d="M2.5 0h9A2.5 2.5 0 0 1 14 2.5v11a2.5 2.5 0 0 1-2.5 2.5h-9A2.5 2.5 0 0 1 0 13.5v-11A2.5 2.5 0 0 1 2.5 0zM3 7h8a2 2 0 0 1 2 2v4a2 2 0 0 1-2 2H3a2 2 0 0 1-2-2V9a2 2 0 0 1 2-2zM1 7h1v2H1V7zm11 0h1v2h-1V7zM7 2.5a5.254 5.254 0 1 1-5 5.248A5.129 5.129 0 0 1 7 2.5zM7 4a4 4 0 1 1-4 4 4 4 0 0 1 4-4zm3-2h2v2h-2V2z" fill="#efebe4" fill-rule="evenodd"/></symbol><symbol id="icon-star-empty"><path data-name="interface - favorite star" d="M9.687.11a.633.633 0 0 1 .854.22l3.75 6.92a.6.6 0 0 1-.229.83.641.641 0 0 1-.853-.22L9.459.93a.585.585 0 0 1 .228-.82zm.625 0a.632.632 0 0 0-.853.22l-3.75 6.92a.6.6 0 0 0 .228.83.642.642 0 0 0 .854-.22l3.75-6.93a.585.585 0 0 0-.229-.82zM13.75 6.9h5.625a.625.625 0 1 1 0 1.25H13.75a.625.625 0 1 1 0-1.25zM.625 6.9H6.25a.625.625 0 1 1 0 1.25H.625a.625.625 0 1 1 0-1.25zm-.446.18a.625.625 0 0 1 .878 0l5.014 5.02a.618.618 0 0 1-.878.87L.179 7.96a.624.624 0 0 1 0-.88zm19.642 0a.625.625 0 0 0-.878 0l-5.014 5.02a.618.618 0 0 0 .878.87l5.014-5.01a.624.624 0 0 0 0-.88zM5.78 11.93a.635.635 0 0 1 .459.78L4.39 19.55a.648.648 0 0 1-1.254-.33l1.848-6.84a.644.644 0 0 1 .796-.45zm8.44 0a.635.635 0 0 0-.459.78l1.849 6.84a.648.648 0 0 0 1.254-.33l-1.849-6.84a.643.643 0 0 0-.795-.45zm-3.8 2.66a.684.684 0 0 0-.917 0l-6.2 4.4a.571.571 0 0 0 .007.85.686.686 0 0 0 .918.01l6.2-4.41a.571.571 0 0 0-.006-.85zm-.844 0a.684.684 0 0 1 .917 0l6.2 4.4a.569.569 0 0 1-.007.85.685.685 0 0 1-.917.01l-6.2-4.41a.57.57 0 0 1 .009-.85z" fill="#fff" fill-rule="evenodd"/></symbol><symbol id="icon-star-full"><path data-name="Star - alt" d="M10.289.02l3.183 6.57 7.116 1.05-5.15 5.12 1.216 7.22-6.365-3.41-6.365 3.41 1.216-7.22-5.15-5.12 7.117-1.05z" fill="#fff" fill-rule="evenodd"/></symbol><symbol id="icon-twitter"><path data-name="logo - Twitter" d="M16 1.5L14.5 3v.249a2.943 2.943 0 0 1-.11.788A8.772 8.772 0 0 1 11 10.98c-5.31 4.238-11 .5-11 .5 4.5 0 4.5-1.5 4.5-1.5-1 0-3-1.995-3-1.995a1.515 1.515 0 0 0 1.5 0C.5 6.485.5 4.992.5 4.992a1.516 1.516 0 0 0 1.5 0A3.44 3.44 0 0 1 1 .503c.5 2.494 7 3.491 7 3.491l.08-.041A6.012 6.012 0 0 1 8 2.997 3.04 3.04 0 0 1 11.25 0a3.239 3.239 0 0 1 2.46 1.143L14 1l1.5-1-1 2z" fill="#efebe4" fill-rule="evenodd"/></symbol></svg>